<mxfile host="app.diagrams.net" modified="2021-07-15T05:59:24.838Z" agent="5.0 (Windows NT 10.0; Win64; x64) AppleWebKit/537.36 (KHTML, like Gecko) Chrome/91.0.4472.106 Safari/537.36" etag="IopReWqOhuF3VG7VHuBd" version="14.8.6" type="github">
  <diagram id="ibJwKnY-CvP4sUPW7swE" name="Page-1">
    <mxGraphModel dx="868" dy="450" grid="1" gridSize="10" guides="1" tooltips="1" connect="1" arrows="1" fold="1" page="1" pageScale="1" pageWidth="850" pageHeight="1100" math="0" shadow="0">
      <root>
        <mxCell id="0" />
        <mxCell id="1" parent="0" />
        <mxCell id="1MzPFMHJWz-0cshGv9QD-10" style="edgeStyle=orthogonalEdgeStyle;rounded=0;orthogonalLoop=1;jettySize=auto;html=1;exitX=1;exitY=0.5;exitDx=0;exitDy=0;entryX=0;entryY=0.5;entryDx=0;entryDy=0;" edge="1" parent="1" source="1MzPFMHJWz-0cshGv9QD-1" target="1MzPFMHJWz-0cshGv9QD-2">
          <mxGeometry relative="1" as="geometry" />
        </mxCell>
        <mxCell id="1MzPFMHJWz-0cshGv9QD-1" value="Open" style="rounded=0;whiteSpace=wrap;html=1;" vertex="1" parent="1">
          <mxGeometry x="50" y="110" width="80" height="40" as="geometry" />
        </mxCell>
        <mxCell id="1MzPFMHJWz-0cshGv9QD-8" style="edgeStyle=orthogonalEdgeStyle;rounded=0;orthogonalLoop=1;jettySize=auto;html=1;exitX=1;exitY=0.5;exitDx=0;exitDy=0;entryX=0;entryY=0.5;entryDx=0;entryDy=0;" edge="1" parent="1" source="1MzPFMHJWz-0cshGv9QD-2" target="1MzPFMHJWz-0cshGv9QD-3">
          <mxGeometry relative="1" as="geometry" />
        </mxCell>
        <mxCell id="1MzPFMHJWz-0cshGv9QD-9" style="edgeStyle=orthogonalEdgeStyle;rounded=0;orthogonalLoop=1;jettySize=auto;html=1;exitX=0.5;exitY=1;exitDx=0;exitDy=0;entryX=0.5;entryY=1;entryDx=0;entryDy=0;" edge="1" parent="1" source="1MzPFMHJWz-0cshGv9QD-2" target="1MzPFMHJWz-0cshGv9QD-4">
          <mxGeometry relative="1" as="geometry" />
        </mxCell>
        <mxCell id="1MzPFMHJWz-0cshGv9QD-2" value="ACK" style="rounded=0;whiteSpace=wrap;html=1;" vertex="1" parent="1">
          <mxGeometry x="230" y="110" width="80" height="40" as="geometry" />
        </mxCell>
        <mxCell id="1MzPFMHJWz-0cshGv9QD-7" style="edgeStyle=orthogonalEdgeStyle;rounded=0;orthogonalLoop=1;jettySize=auto;html=1;exitX=1;exitY=0.5;exitDx=0;exitDy=0;" edge="1" parent="1" source="1MzPFMHJWz-0cshGv9QD-3" target="1MzPFMHJWz-0cshGv9QD-4">
          <mxGeometry relative="1" as="geometry" />
        </mxCell>
        <mxCell id="1MzPFMHJWz-0cshGv9QD-3" value="Work in Progress" style="rounded=0;whiteSpace=wrap;html=1;" vertex="1" parent="1">
          <mxGeometry x="440" y="110" width="80" height="40" as="geometry" />
        </mxCell>
        <mxCell id="1MzPFMHJWz-0cshGv9QD-6" style="edgeStyle=orthogonalEdgeStyle;rounded=0;orthogonalLoop=1;jettySize=auto;html=1;exitX=0.75;exitY=0;exitDx=0;exitDy=0;entryX=0.5;entryY=0;entryDx=0;entryDy=0;" edge="1" parent="1" source="1MzPFMHJWz-0cshGv9QD-4" target="1MzPFMHJWz-0cshGv9QD-5">
          <mxGeometry relative="1" as="geometry" />
        </mxCell>
        <mxCell id="1MzPFMHJWz-0cshGv9QD-4" value="Resolved" style="rounded=0;whiteSpace=wrap;html=1;" vertex="1" parent="1">
          <mxGeometry x="610" y="110" width="80" height="40" as="geometry" />
        </mxCell>
        <mxCell id="1MzPFMHJWz-0cshGv9QD-5" value="Closed&lt;br&gt;" style="rounded=0;whiteSpace=wrap;html=1;" vertex="1" parent="1">
          <mxGeometry x="710" y="220" width="80" height="40" as="geometry" />
        </mxCell>
        <mxCell id="1MzPFMHJWz-0cshGv9QD-11" value="nosla" style="text;html=1;strokeColor=none;fillColor=none;align=center;verticalAlign=middle;whiteSpace=wrap;rounded=0;" vertex="1" parent="1">
          <mxGeometry x="750" y="100" width="40" height="20" as="geometry" />
        </mxCell>
        <mxCell id="1MzPFMHJWz-0cshGv9QD-12" value="nosla" style="text;html=1;strokeColor=none;fillColor=none;align=center;verticalAlign=middle;whiteSpace=wrap;rounded=0;" vertex="1" parent="1">
          <mxGeometry x="540" y="100" width="40" height="20" as="geometry" />
        </mxCell>
        <mxCell id="1MzPFMHJWz-0cshGv9QD-13" value="1 hour" style="text;html=1;strokeColor=none;fillColor=none;align=center;verticalAlign=middle;whiteSpace=wrap;rounded=0;" vertex="1" parent="1">
          <mxGeometry x="150" y="100" width="40" height="20" as="geometry" />
        </mxCell>
        <mxCell id="1MzPFMHJWz-0cshGv9QD-16" value="Based on Priority" style="text;html=1;strokeColor=none;fillColor=none;align=center;verticalAlign=middle;whiteSpace=wrap;rounded=0;" vertex="1" parent="1">
          <mxGeometry x="410" y="180" width="100" height="20" as="geometry" />
        </mxCell>
        <mxCell id="1MzPFMHJWz-0cshGv9QD-17" value="Based on Priority" style="text;html=1;strokeColor=none;fillColor=none;align=center;verticalAlign=middle;whiteSpace=wrap;rounded=0;" vertex="1" parent="1">
          <mxGeometry x="325" y="100" width="100" height="20" as="geometry" />
        </mxCell>
      </root>
    </mxGraphModel>
  </diagram>
</mxfile>
